<svg width="1600" height="1000" viewBox="0 0 1600 1000" fill="none" xmlns="http://www.w3.org/2000/svg">
  <rect width="1600" height="1000" rx="64" fill="#FFF8EE"/>
  <circle cx="1370" cy="190" r="170" fill="#FFE7A1"/>
  <circle cx="230" cy="860" r="220" fill="#F6D6CD"/>
  <rect x="182" y="198" width="1236" height="604" rx="40" fill="#111111"/>
  <rect x="214" y="228" width="1172" height="544" rx="28" fill="#F8F3EC"/>
  <rect x="270" y="286" width="408" height="86" rx="24" fill="#C8102E"/>
  <rect x="270" y="404" width="296" height="26" rx="13" fill="#D8D0C6"/>
  <rect x="270" y="452" width="380" height="26" rx="13" fill="#E8DFD3"/>
  <rect x="270" y="500" width="248" height="26" rx="13" fill="#D8D0C6"/>
  <rect x="270" y="566" width="352" height="150" rx="28" fill="#FFF1C4"/>
  <rect x="660" y="566" width="312" height="150" rx="28" fill="#F3E5DA"/>
  <rect x="1010" y="566" width="320" height="150" rx="28" fill="#F6D448"/>
  <rect x="760" y="302" width="480" height="220" rx="36" fill="#111111"/>
  <rect x="804" y="346" width="394" height="28" rx="14" fill="#FFF8EE"/>
  <rect x="804" y="404" width="268" height="20" rx="10" fill="#C6BAAE"/>
  <rect x="804" y="444" width="210" height="20" rx="10" fill="#C6BAAE"/>
  <circle cx="1140" cy="450" r="72" fill="#C8102E"/>
  <path d="M1110 450H1170" stroke="#FFF8EE" stroke-width="20" stroke-linecap="round"/>
  <path d="M1140 420V480" stroke="#FFF8EE" stroke-width="20" stroke-linecap="round"/>
  <path d="M1260 250L1330 320" stroke="#C8102E" stroke-width="18" stroke-linecap="round"/>
  <path d="M1295 250L1330 285L1365 250" stroke="#111111" stroke-width="18" stroke-linecap="round" stroke-linejoin="round"/>
</svg>
